<svg xmlns="http://www.w3.org/2000/svg" width="56.846" height="56.846" viewBox="0 0 56.846 56.846" data-icon-type="SVG-close"><path id="Path_2431" data-name="Path 2431" d="M277.9,158.092a3.486,3.486,0,0,0,.006-4.926l-.058-.058a3.482,3.482,0,0,0-4.926.006L252.972,173.07a3.485,3.485,0,0,1-4.932,0l-19.955-19.956a3.486,3.486,0,0,0-4.926-.006l-.058.058a3.482,3.482,0,0,0,.006,4.926l19.956,19.955a3.485,3.485,0,0,1,0,4.932l-19.956,19.955a3.486,3.486,0,0,0-.006,4.926l.058.058a3.482,3.482,0,0,0,4.926-.006l19.955-19.956a3.485,3.485,0,0,1,4.932,0l19.955,19.956a3.486,3.486,0,0,0,4.926.006l.058-.058a3.482,3.482,0,0,0-.006-4.926l-19.956-19.955a3.485,3.485,0,0,1,0-4.932Z" transform="translate(-222.083 -152.09)" fill-rule="evenodd"></path></svg>